<svg preserveAspectRatio="none" width="100%" height="100%" overflow="visible" style="display: block;" viewBox="0 0 144.752 42.0012" fill="none" xmlns="http://www.w3.org/2000/svg">
<g id="Group">
<path id="Vector" d="M106.956 16.5969C107.689 17.2565 108.055 18.3514 108.053 19.8815C108.053 22.731 106.632 24.1557 103.788 24.1559H101.053C101.038 24.158 101.022 24.1566 101.008 24.1518C100.993 24.147 100.98 24.139 100.969 24.1283C100.958 24.1176 100.949 24.1046 100.944 24.0903C100.94 24.076 100.938 24.0608 100.94 24.0458L101.04 15.7177C101.038 15.7028 101.039 15.6875 101.044 15.6732C101.049 15.6589 101.058 15.6459 101.068 15.6352C101.079 15.6245 101.093 15.6165 101.107 15.6117C101.122 15.6069 101.138 15.6055 101.153 15.6076H103.788C105.167 15.6076 106.223 15.9375 106.955 16.5971M106.478 22.7268C107.092 22.1654 107.4 21.217 107.4 19.8818C107.4 18.0417 106.823 16.906 105.669 16.4747C105.063 16.2753 104.427 16.1803 103.787 16.194H101.692L101.592 23.5695H103.787C104.966 23.5695 105.863 23.2886 106.478 22.7268Z" fill="var(--fill-0, white)"/>
<path id="Vector_2" d="M106.956 16.5969C107.689 17.2565 108.055 18.3514 108.053 19.8815C108.053 22.731 106.632 24.1557 103.788 24.1559H101.053C101.038 24.158 101.022 24.1566 101.008 24.1518C100.993 24.147 100.98 24.139 100.969 24.1283C100.958 24.1176 100.949 24.1046 100.944 24.0903C100.94 24.076 100.938 24.0608 100.94 24.0458L101.04 15.7177C101.038 15.7028 101.039 15.6875 101.044 15.6732C101.049 15.6589 101.058 15.6459 101.068 15.6352C101.079 15.6245 101.093 15.6165 101.107 15.6117C101.122 15.6069 101.138 15.6055 101.153 15.6076H103.788C105.167 15.6076 106.223 15.9375 106.955 16.5971M106.478 22.7268C107.092 22.1654 107.4 21.217 107.4 19.8818C107.4 18.0417 106.823 16.906 105.669 16.4747C105.063 16.2753 104.427 16.1803 103.787 16.194H101.692L101.592 23.5695H103.787C104.966 23.5695 105.863 23.2886 106.478 22.7268Z" fill="var(--fill-0, white)"/>
<path id="Vector_3" d="M109.905 24.0638C109.875 24.0363 109.851 24.0032 109.835 23.9664C109.819 23.9296 109.81 23.89 109.811 23.8499V15.8762C109.809 15.8343 109.817 15.7926 109.833 15.7537C109.85 15.7148 109.874 15.6796 109.905 15.6503C109.933 15.6212 109.967 15.5981 110.005 15.5824C110.042 15.5667 110.083 15.5586 110.124 15.5588H110.149C110.19 15.5569 110.232 15.5635 110.271 15.5782C110.31 15.5929 110.345 15.6153 110.375 15.644C110.404 15.6728 110.427 15.7072 110.443 15.7451C110.458 15.7829 110.465 15.8235 110.463 15.8641V23.8503C110.463 23.93 110.432 24.0067 110.375 24.0642C110.346 24.0942 110.311 24.1179 110.272 24.1337C110.233 24.1494 110.191 24.1569 110.149 24.1557H110.124C110.083 24.1557 110.042 24.1476 110.005 24.1319C109.967 24.1162 109.933 24.0927 109.905 24.0638Z" fill="var(--fill-0, white)"/>
<path id="Vector_4" d="M109.905 24.0638C109.875 24.0363 109.851 24.0032 109.835 23.9664C109.819 23.9296 109.81 23.89 109.811 23.8499V15.8762C109.809 15.8343 109.817 15.7926 109.833 15.7537C109.85 15.7148 109.874 15.6796 109.905 15.6503C109.933 15.6212 109.967 15.5981 110.005 15.5824C110.042 15.5667 110.083 15.5586 110.124 15.5588H110.149C110.19 15.5569 110.232 15.5635 110.271 15.5782C110.31 15.5929 110.345 15.6153 110.375 15.644C110.404 15.6728 110.427 15.7072 110.443 15.7451C110.458 15.7829 110.465 15.8235 110.463 15.8641V23.8503C110.463 23.93 110.432 24.0067 110.375 24.0642C110.346 24.0942 110.311 24.1179 110.272 24.1337C110.233 24.1494 110.191 24.1569 110.149 24.1557H110.124C110.083 24.1557 110.042 24.1476 110.005 24.1319C109.967 24.1162 109.933 24.0927 109.905 24.0638Z" fill="var(--fill-0, white)"/>
<path id="Vector_5" d="M119.859 17.598C119.667 17.2635 119.419 16.9623 119.125 16.7065C118.839 16.4748 118.509 16.3006 118.153 16.194C117.665 16.0715 117.163 16.0139 116.659 16.0228C115.952 16.0042 115.251 16.1664 114.628 16.4933C114.062 16.8032 113.607 17.274 113.323 17.8427C113.01 18.4787 112.855 19.1773 112.871 19.8822C112.855 20.5851 113.01 21.2817 113.323 21.9153C113.609 22.4821 114.064 22.9522 114.628 23.2644C115.25 23.5949 115.951 23.7593 116.659 23.7407C117.881 23.7407 118.788 23.4984 119.382 23.0138C119.976 22.5292 120.311 21.7417 120.386 20.6513H117.451C117.365 20.6534 117.281 20.6226 117.218 20.5655C117.189 20.5394 117.165 20.5074 117.149 20.4716C117.132 20.4359 117.124 20.3972 117.125 20.3581C117.124 20.3194 117.131 20.281 117.146 20.2452C117.162 20.2094 117.184 20.1769 117.212 20.1499C117.242 20.1215 117.278 20.0994 117.316 20.0847C117.355 20.0701 117.397 20.0633 117.438 20.0647H120.976C120.992 20.0626 121.007 20.064 121.022 20.0688C121.037 20.0736 121.05 20.0817 121.061 20.0923C121.072 20.103 121.08 20.116 121.085 20.1303C121.09 20.1446 121.091 20.1598 121.089 20.1747C121.081 21.5912 120.704 22.6373 119.96 23.313C119.216 23.9888 118.116 24.3266 116.66 24.3265C115.847 24.3437 115.042 24.1543 114.327 23.777C113.665 23.418 113.124 22.8791 112.771 22.2261C112.391 21.5009 112.202 20.6954 112.219 19.8815C112.2 19.0669 112.386 18.26 112.759 17.5306C113.105 16.8718 113.648 16.3295 114.315 15.9741C115.036 15.6031 115.844 15.418 116.66 15.4364C117.614 15.4364 118.378 15.581 118.95 15.8701C119.566 16.1992 120.076 16.6874 120.424 17.2808C120.456 17.3323 120.473 17.3911 120.474 17.4512C120.473 17.5089 120.454 17.5651 120.421 17.6128C120.388 17.6606 120.341 17.6979 120.286 17.7202C120.239 17.7436 120.188 17.756 120.135 17.7565C120.08 17.7533 120.026 17.7372 119.978 17.7096C119.93 17.682 119.889 17.6439 119.859 17.598Z" fill="var(--fill-0, white)"/>
<path id="Vector_6" d="M119.859 17.598C119.667 17.2635 119.419 16.9623 119.125 16.7065C118.839 16.4748 118.509 16.3006 118.153 16.194C117.665 16.0715 117.163 16.0139 116.659 16.0228C115.952 16.0042 115.251 16.1664 114.628 16.4933C114.062 16.8032 113.607 17.274 113.323 17.8427C113.01 18.4787 112.855 19.1773 112.871 19.8822C112.855 20.5851 113.01 21.2817 113.323 21.9153C113.609 22.4821 114.064 22.9522 114.628 23.2644C115.25 23.5949 115.951 23.7593 116.659 23.7407C117.881 23.7407 118.788 23.4984 119.382 23.0138C119.976 22.5292 120.311 21.7417 120.386 20.6513H117.451C117.365 20.6534 117.281 20.6226 117.218 20.5655C117.189 20.5394 117.165 20.5074 117.149 20.4716C117.132 20.4359 117.124 20.3972 117.125 20.3581C117.124 20.3194 117.131 20.281 117.146 20.2452C117.162 20.2094 117.184 20.1769 117.212 20.1499C117.242 20.1215 117.278 20.0994 117.316 20.0847C117.355 20.0701 117.397 20.0633 117.438 20.0647H120.976C120.992 20.0626 121.007 20.064 121.022 20.0688C121.037 20.0736 121.05 20.0817 121.061 20.0923C121.072 20.103 121.08 20.116 121.085 20.1303C121.09 20.1446 121.091 20.1598 121.089 20.1747C121.081 21.5912 120.704 22.6373 119.96 23.313C119.216 23.9888 118.116 24.3266 116.66 24.3265C115.847 24.3437 115.042 24.1543 114.327 23.777C113.665 23.418 113.124 22.8791 112.771 22.2261C112.391 21.5009 112.202 20.6954 112.219 19.8815C112.2 19.0669 112.386 18.26 112.759 17.5306C113.105 16.8718 113.648 16.3295 114.315 15.9741C115.036 15.6031 115.844 15.418 116.66 15.4364C117.614 15.4364 118.378 15.581 118.95 15.8701C119.566 16.1992 120.076 16.6874 120.424 17.2808C120.456 17.3323 120.473 17.3911 120.474 17.4512C120.473 17.5089 120.454 17.5651 120.421 17.6128C120.388 17.6606 120.341 17.6979 120.286 17.7202C120.239 17.7436 120.188 17.756 120.135 17.7565C120.08 17.7533 120.026 17.7372 119.978 17.7096C119.93 17.682 119.889 17.6439 119.859 17.598Z" fill="var(--fill-0, white)"/>
<path id="Vector_7" d="M122.815 24.0638C122.785 24.0363 122.762 24.0032 122.745 23.9664C122.729 23.9296 122.721 23.89 122.721 23.8499V15.8762C122.72 15.8343 122.728 15.7926 122.744 15.7537C122.76 15.7148 122.784 15.6796 122.815 15.6502C122.843 15.6212 122.877 15.5981 122.915 15.5824C122.953 15.5667 122.993 15.5586 123.034 15.5588H123.059C123.101 15.5569 123.143 15.5635 123.182 15.5782C123.221 15.5929 123.256 15.6153 123.285 15.644C123.315 15.6728 123.338 15.7072 123.353 15.7451C123.368 15.783 123.375 15.8235 123.373 15.8641V23.8503C123.374 23.93 123.342 24.0067 123.286 24.0642C123.257 24.0942 123.222 24.1179 123.183 24.1337C123.144 24.1494 123.102 24.1569 123.059 24.1557H123.034C122.993 24.1557 122.953 24.1476 122.915 24.1319C122.877 24.1161 122.843 24.0927 122.815 24.0638Z" fill="var(--fill-0, white)"/>
<path id="Vector_8" d="M122.815 24.0638C122.785 24.0363 122.762 24.0032 122.745 23.9664C122.729 23.9296 122.721 23.89 122.721 23.8499V15.8762C122.72 15.8343 122.728 15.7926 122.744 15.7537C122.76 15.7148 122.784 15.6796 122.815 15.6502C122.843 15.6212 122.877 15.5981 122.915 15.5824C122.953 15.5667 122.993 15.5586 123.034 15.5588H123.059C123.101 15.5569 123.143 15.5635 123.182 15.5782C123.221 15.5929 123.256 15.6153 123.285 15.644C123.315 15.6728 123.338 15.7072 123.353 15.7451C123.368 15.783 123.375 15.8235 123.373 15.8641V23.8503C123.374 23.93 123.342 24.0067 123.286 24.0642C123.257 24.0942 123.222 24.1179 123.183 24.1337C123.144 24.1494 123.102 24.1569 123.059 24.1557H123.034C122.993 24.1557 122.953 24.1476 122.915 24.1319C122.877 24.1161 122.843 24.0927 122.815 24.0638Z" fill="var(--fill-0, white)"/>
<path id="Vector_9" d="M127.632 24.1128C127.602 24.0854 127.579 24.0523 127.563 24.0156C127.547 23.9789 127.538 23.9393 127.539 23.8994L127.588 16.194H125.393C125.351 16.1954 125.31 16.1885 125.271 16.1737C125.232 16.159 125.197 16.1367 125.167 16.1082C125.111 16.0532 125.079 15.9787 125.079 15.9009C125.079 15.8232 125.111 15.7487 125.167 15.6937C125.197 15.6651 125.232 15.6427 125.271 15.6279C125.309 15.6131 125.351 15.6063 125.393 15.6078H130.297C130.384 15.6053 130.467 15.6362 130.53 15.6937C130.56 15.7195 130.584 15.7514 130.6 15.7871C130.617 15.8228 130.625 15.8616 130.624 15.9006C130.625 15.9393 130.618 15.9778 130.603 16.0135C130.587 16.0493 130.565 16.0816 130.536 16.1084C130.507 16.1369 130.471 16.1592 130.433 16.174C130.394 16.1888 130.352 16.1956 130.311 16.1942H128.241L128.19 23.8996C128.191 23.9792 128.16 24.0559 128.103 24.113C128.074 24.1432 128.039 24.167 128 24.1827C127.961 24.1985 127.919 24.206 127.877 24.2045H127.852C127.811 24.2047 127.77 24.1967 127.732 24.181C127.694 24.1652 127.66 24.1419 127.632 24.1128Z" fill="var(--fill-0, white)"/>
<path id="Vector_10" d="M127.632 24.1128C127.602 24.0854 127.579 24.0523 127.563 24.0156C127.547 23.9789 127.538 23.9393 127.539 23.8994L127.588 16.194H125.393C125.351 16.1954 125.31 16.1885 125.271 16.1737C125.232 16.159 125.197 16.1367 125.167 16.1082C125.111 16.0532 125.079 15.9787 125.079 15.9009C125.079 15.8232 125.111 15.7487 125.167 15.6937C125.197 15.6651 125.232 15.6427 125.271 15.6279C125.309 15.6131 125.351 15.6063 125.393 15.6078H130.297C130.384 15.6053 130.467 15.6362 130.53 15.6937C130.56 15.7195 130.584 15.7514 130.6 15.7871C130.617 15.8228 130.625 15.8616 130.624 15.9006C130.625 15.9393 130.618 15.9778 130.603 16.0135C130.587 16.0493 130.565 16.0816 130.536 16.1084C130.507 16.1369 130.471 16.1592 130.433 16.174C130.394 16.1888 130.352 16.1956 130.311 16.1942H128.241L128.19 23.8996C128.191 23.9792 128.16 24.0559 128.103 24.113C128.074 24.1432 128.039 24.167 128 24.1827C127.961 24.1985 127.919 24.206 127.877 24.2045H127.852C127.811 24.2047 127.77 24.1967 127.732 24.181C127.694 24.1652 127.66 24.1419 127.632 24.1128Z" fill="var(--fill-0, white)"/>
<path id="Vector_11" d="M137.751 24.0214L136.973 22.2873H132.03L131.328 24.0214C131.303 24.0774 131.26 24.1241 131.206 24.1548C131.152 24.1855 131.089 24.1986 131.026 24.1922C130.94 24.1982 130.854 24.1834 130.775 24.1492C130.75 24.133 130.729 24.1103 130.716 24.0835C130.702 24.0566 130.697 24.0268 130.7 23.9971C130.708 23.892 130.733 23.7888 130.775 23.6918L134 15.8154C134.018 15.7649 134.054 15.7221 134.101 15.6943C134.148 15.6618 134.205 15.6446 134.264 15.6448H134.816C134.874 15.6447 134.931 15.662 134.978 15.6943C135.025 15.7224 135.06 15.7651 135.079 15.8154L138.303 23.6918C138.355 23.7901 138.385 23.8982 138.391 24.0089C138.391 24.0896 138.366 24.1415 138.315 24.1619C138.217 24.1882 138.116 24.1985 138.014 24.1924C137.956 24.1925 137.899 24.1755 137.851 24.1435C137.805 24.1156 137.77 24.0728 137.752 24.0224M134.551 16.1082L132.243 21.6888H136.747L134.551 16.1082Z" fill="var(--fill-0, white)"/>
<path id="Vector_12" d="M137.751 24.0214L136.973 22.2873H132.03L131.328 24.0214C131.303 24.0774 131.26 24.1241 131.206 24.1548C131.152 24.1855 131.089 24.1986 131.026 24.1922C130.94 24.1982 130.854 24.1834 130.775 24.1492C130.75 24.133 130.729 24.1103 130.716 24.0835C130.702 24.0566 130.697 24.0268 130.7 23.9971C130.708 23.892 130.733 23.7888 130.775 23.6918L134 15.8154C134.018 15.7649 134.054 15.7221 134.101 15.6943C134.148 15.6618 134.205 15.6446 134.264 15.6448H134.816C134.874 15.6447 134.931 15.662 134.978 15.6943C135.025 15.7224 135.06 15.7651 135.079 15.8154L138.303 23.6918C138.355 23.7901 138.385 23.8982 138.391 24.0089C138.391 24.0896 138.366 24.1415 138.315 24.1619C138.217 24.1882 138.116 24.1985 138.014 24.1924C137.956 24.1925 137.899 24.1755 137.851 24.1435C137.805 24.1156 137.77 24.0728 137.752 24.0224M134.551 16.1082L132.243 21.6888H136.747L134.551 16.1082Z" fill="var(--fill-0, white)"/>
<path id="Vector_13" d="M144.438 24.1561H140.286C140.27 24.1582 140.255 24.1567 140.24 24.1519C140.225 24.1471 140.212 24.1391 140.201 24.1284C140.19 24.1177 140.182 24.1046 140.177 24.0903C140.172 24.076 140.17 24.0608 140.173 24.0458L140.098 15.8766C140.097 15.8366 140.106 15.797 140.122 15.7602C140.138 15.7234 140.162 15.6903 140.192 15.6628C140.237 15.6178 140.296 15.587 140.359 15.5745C140.423 15.562 140.489 15.5683 140.549 15.5926C140.609 15.6169 140.66 15.658 140.696 15.7108C140.732 15.7635 140.75 15.8255 140.75 15.8887L140.825 23.5695H144.438C144.48 23.5681 144.521 23.575 144.56 23.5898C144.599 23.6045 144.634 23.6268 144.664 23.6553C144.72 23.7106 144.752 23.7852 144.752 23.8629C144.752 23.9405 144.72 24.0151 144.664 24.0704C144.634 24.099 144.599 24.1213 144.56 24.136C144.521 24.1508 144.48 24.1575 144.438 24.1561Z" fill="var(--fill-0, white)"/>
<path id="Vector_14" d="M144.438 24.1561H140.286C140.27 24.1582 140.255 24.1567 140.24 24.1519C140.225 24.1471 140.212 24.1391 140.201 24.1284C140.19 24.1177 140.182 24.1046 140.177 24.0903C140.172 24.076 140.17 24.0608 140.173 24.0458L140.098 15.8766C140.097 15.8366 140.106 15.797 140.122 15.7602C140.138 15.7234 140.162 15.6903 140.192 15.6628C140.237 15.6178 140.296 15.587 140.359 15.5745C140.423 15.562 140.489 15.5683 140.549 15.5926C140.609 15.6169 140.66 15.658 140.696 15.7108C140.732 15.7635 140.75 15.8255 140.75 15.8887L140.825 23.5695H144.438C144.48 23.5681 144.521 23.575 144.56 23.5898C144.599 23.6045 144.634 23.6268 144.664 23.6553C144.72 23.7106 144.752 23.7852 144.752 23.8629C144.752 23.9405 144.72 24.0151 144.664 24.0704C144.634 24.099 144.599 24.1213 144.56 24.136C144.521 24.1508 144.48 24.1575 144.438 24.1561Z" fill="var(--fill-0, white)"/>
<path id="Vector_15" d="M108.58 28.9925C108.387 28.658 108.139 28.3568 107.846 28.101C107.56 27.8693 107.229 27.6949 106.874 27.5879C106.386 27.4656 105.884 27.4081 105.38 27.4171C104.672 27.3983 103.972 27.5605 103.349 27.8876C102.783 28.1975 102.327 28.6684 102.044 29.237C101.746 29.8767 101.592 30.5709 101.592 31.2732C101.592 31.9756 101.746 32.6698 102.044 33.3094C102.33 33.8762 102.785 34.3463 103.349 34.6587C103.971 34.9888 104.672 35.1529 105.38 35.1344C106.601 35.1344 107.509 34.8921 108.103 34.4075C108.697 33.9229 109.031 33.1354 109.107 32.045H106.171C106.085 32.0473 106.002 32.0167 105.939 31.9598C105.909 31.9336 105.885 31.9015 105.869 31.8656C105.853 31.8298 105.845 31.791 105.845 31.7518C105.845 31.7132 105.852 31.6749 105.867 31.6392C105.882 31.6035 105.905 31.5712 105.933 31.5442C105.963 31.5157 105.998 31.4934 106.037 31.4788C106.076 31.4641 106.118 31.4574 106.16 31.459H109.697C109.712 31.4569 109.728 31.4583 109.743 31.4631C109.757 31.4678 109.771 31.4759 109.782 31.4865C109.793 31.4972 109.801 31.5102 109.806 31.5245C109.811 31.5389 109.812 31.5541 109.81 31.5691C109.801 32.9855 109.425 34.0316 108.681 34.7073C107.936 35.3831 106.836 35.7209 105.381 35.7208C104.567 35.738 103.763 35.5486 103.048 35.1714C102.385 34.8123 101.845 34.2734 101.492 33.6204C101.112 32.8952 100.922 32.0897 100.94 31.2759C100.921 30.4612 101.106 29.6542 101.479 28.9249C101.826 28.2659 102.368 27.7236 103.035 27.368C103.757 26.9972 104.563 26.8122 105.379 26.8307C106.333 26.8307 107.097 26.9753 107.669 27.2645C108.285 27.5932 108.795 28.0813 109.143 28.6747C109.175 28.7264 109.192 28.7853 109.193 28.8455C109.192 28.9032 109.173 28.9594 109.14 29.0071C109.107 29.0548 109.06 29.092 109.005 29.1141C108.959 29.1378 108.907 29.1504 108.855 29.1508C108.799 29.1475 108.745 29.1314 108.697 29.1038C108.649 29.0762 108.608 29.038 108.578 28.9921" fill="var(--fill-0, white)"/>
<path id="Vector_16" d="M108.58 28.9925C108.387 28.658 108.139 28.3568 107.846 28.101C107.56 27.8693 107.229 27.6949 106.874 27.5879C106.386 27.4656 105.884 27.4081 105.38 27.4171C104.672 27.3983 103.972 27.5605 103.349 27.8876C102.783 28.1975 102.327 28.6684 102.044 29.237C101.746 29.8767 101.592 30.5709 101.592 31.2732C101.592 31.9756 101.746 32.6698 102.044 33.3094C102.33 33.8762 102.785 34.3463 103.349 34.6587C103.971 34.9888 104.672 35.1529 105.38 35.1344C106.601 35.1344 107.509 34.8921 108.103 34.4075C108.697 33.9229 109.031 33.1354 109.107 32.045H106.171C106.085 32.0473 106.002 32.0167 105.939 31.9598C105.909 31.9336 105.885 31.9015 105.869 31.8656C105.853 31.8298 105.845 31.791 105.845 31.7518C105.845 31.7132 105.852 31.6749 105.867 31.6392C105.882 31.6035 105.905 31.5712 105.933 31.5442C105.963 31.5157 105.998 31.4934 106.037 31.4788C106.076 31.4641 106.118 31.4574 106.16 31.459H109.697C109.712 31.4569 109.728 31.4583 109.743 31.4631C109.757 31.4678 109.771 31.4759 109.782 31.4865C109.793 31.4972 109.801 31.5102 109.806 31.5245C109.811 31.5389 109.812 31.5541 109.81 31.5691C109.801 32.9855 109.425 34.0316 108.681 34.7073C107.936 35.3831 106.836 35.7209 105.381 35.7208C104.567 35.738 103.763 35.5486 103.048 35.1714C102.385 34.8123 101.845 34.2734 101.492 33.6204C101.112 32.8952 100.922 32.0897 100.94 31.2759C100.921 30.4612 101.106 29.6542 101.479 28.9249C101.826 28.2659 102.368 27.7236 103.035 27.368C103.757 26.9972 104.563 26.8122 105.379 26.8307C106.333 26.8307 107.097 26.9753 107.669 27.2645C108.285 27.5932 108.795 28.0813 109.143 28.6747C109.175 28.7264 109.192 28.7853 109.193 28.8455C109.192 28.9032 109.173 28.9594 109.14 29.0071C109.107 29.0548 109.06 29.092 109.005 29.1141C108.959 29.1378 108.907 29.1504 108.855 29.1508C108.799 29.1475 108.745 29.1314 108.697 29.1038C108.649 29.0762 108.608 29.038 108.578 28.9921" fill="var(--fill-0, white)"/>
<path id="Vector_17" d="M111.555 27.002H114.339C114.894 26.99 115.444 27.1051 115.945 27.3378C116.385 27.5353 116.757 27.8538 117.013 28.2542C117.269 28.6545 117.399 29.1191 117.388 29.5906C117.42 30.2423 117.247 30.8879 116.892 31.4414C116.554 31.9143 116.054 32.2542 115.481 32.3998L116.987 35.0736C117.061 35.1849 117.113 35.3093 117.138 35.4397C117.14 35.4591 117.137 35.4788 117.128 35.4962C117.119 35.5137 117.104 35.5281 117.087 35.5377C117.027 35.5582 116.963 35.5666 116.899 35.5623H116.748C116.691 35.565 116.635 35.5514 116.586 35.5232C116.537 35.4949 116.498 35.4534 116.473 35.4036L114.841 32.5336C114.75 32.5436 114.658 32.5477 114.566 32.5462H112.094V35.2568C112.094 35.3364 112.063 35.4131 112.006 35.4706C111.978 35.5007 111.942 35.5244 111.903 35.5402C111.864 35.556 111.822 35.5635 111.78 35.5621H111.755C111.673 35.56 111.594 35.5272 111.536 35.4703C111.477 35.4135 111.444 35.3371 111.442 35.2568V27.1118C111.439 27.0969 111.441 27.0816 111.446 27.0673C111.451 27.053 111.459 27.04 111.47 27.0293C111.481 27.0187 111.494 27.0107 111.509 27.0059C111.524 27.0012 111.539 26.9998 111.555 27.002ZM116.133 31.3918C116.543 31.0132 116.748 30.4128 116.748 29.5904C116.763 29.3157 116.715 29.0412 116.607 28.7868C116.5 28.5324 116.336 28.3043 116.127 28.1192C115.713 27.7652 115.117 27.5881 114.339 27.5879H112.094V31.96H114.339C115.126 31.96 115.723 31.7706 116.133 31.3918Z" fill="var(--fill-0, white)"/>
<path id="Vector_18" d="M111.555 27.002H114.339C114.894 26.99 115.444 27.1051 115.945 27.3378C116.385 27.5353 116.757 27.8538 117.013 28.2542C117.269 28.6545 117.399 29.1191 117.388 29.5906C117.42 30.2423 117.247 30.8879 116.892 31.4414C116.554 31.9143 116.054 32.2542 115.481 32.3998L116.987 35.0736C117.061 35.1849 117.113 35.3093 117.138 35.4397C117.14 35.4591 117.137 35.4788 117.128 35.4962C117.119 35.5137 117.104 35.5281 117.087 35.5377C117.027 35.5582 116.963 35.5666 116.899 35.5623H116.748C116.691 35.565 116.635 35.5514 116.586 35.5232C116.537 35.4949 116.498 35.4534 116.473 35.4036L114.841 32.5336C114.75 32.5436 114.658 32.5477 114.566 32.5462H112.094V35.2568C112.094 35.3364 112.063 35.4131 112.006 35.4706C111.978 35.5007 111.942 35.5244 111.903 35.5402C111.864 35.556 111.822 35.5635 111.78 35.5621H111.755C111.673 35.56 111.594 35.5272 111.536 35.4703C111.477 35.4135 111.444 35.3371 111.442 35.2568V27.1118C111.439 27.0969 111.441 27.0816 111.446 27.0673C111.451 27.053 111.459 27.04 111.47 27.0293C111.481 27.0187 111.494 27.0107 111.509 27.0059C111.524 27.0012 111.539 26.9998 111.555 27.002ZM116.133 31.3918C116.543 31.0132 116.748 30.4128 116.748 29.5904C116.763 29.3157 116.715 29.0412 116.607 28.7868C116.5 28.5324 116.336 28.3043 116.127 28.1192C115.713 27.7652 115.117 27.5881 114.339 27.5879H112.094V31.96H114.339C115.126 31.96 115.723 31.7706 116.133 31.3918Z" fill="var(--fill-0, white)"/>
<path id="Vector_19" d="M118.857 31.2763C118.857 29.8922 119.229 28.8196 119.973 28.0586C120.717 27.2976 121.796 26.9169 123.209 26.9163C124.004 26.8887 124.794 27.0569 125.505 27.4052C126.141 27.7555 126.659 28.2769 126.998 28.9069C127.392 29.6365 127.586 30.4524 127.563 31.2763C127.563 32.6846 127.183 33.7634 126.422 34.5125C125.662 35.2616 124.591 35.6361 123.21 35.6358C121.838 35.6358 120.77 35.2593 120.004 34.5062C119.239 33.7532 118.857 32.6771 118.857 31.2763ZM126.923 31.2755C126.923 30.0622 126.612 29.1279 125.988 28.4728C125.365 27.8176 124.439 27.4899 123.209 27.4898C121.962 27.4898 121.032 27.8154 120.418 28.4667C119.803 29.118 119.496 30.0545 119.497 31.2763C119.497 32.5138 119.815 33.4539 120.451 34.0967C121.087 34.7395 122.007 35.061 123.21 35.0611C124.406 35.0611 125.324 34.7376 125.963 34.0905C126.602 33.4434 126.922 32.5045 126.923 31.2755Z" fill="var(--fill-0, white)"/>
<path id="Vector_20" d="M118.857 31.2763C118.857 29.8922 119.229 28.8196 119.973 28.0586C120.717 27.2976 121.796 26.9169 123.209 26.9163C124.004 26.8887 124.794 27.0569 125.505 27.4052C126.141 27.7555 126.659 28.2769 126.998 28.9069C127.392 29.6365 127.586 30.4524 127.563 31.2763C127.563 32.6846 127.183 33.7634 126.422 34.5125C125.662 35.2616 124.591 35.6361 123.21 35.6358C121.838 35.6358 120.77 35.2593 120.004 34.5062C119.239 33.7532 118.857 32.6771 118.857 31.2763ZM126.923 31.2755C126.923 30.0622 126.612 29.1279 125.988 28.4728C125.365 27.8176 124.439 27.4899 123.209 27.4898C121.962 27.4898 121.032 27.8154 120.418 28.4667C119.803 29.118 119.496 30.0545 119.497 31.2763C119.497 32.5138 119.815 33.4539 120.451 34.0967C121.087 34.7395 122.007 35.061 123.21 35.0611C124.406 35.0611 125.324 34.7376 125.963 34.0905C126.602 33.4434 126.922 32.5045 126.923 31.2755Z" fill="var(--fill-0, white)"/>
<path id="Vector_21" d="M136.121 27.051C136.15 27.08 136.172 27.1144 136.187 27.1522C136.202 27.1899 136.209 27.2303 136.208 27.2707V32.1801C136.208 33.3192 135.926 34.1942 135.362 34.8051C134.797 35.416 133.967 35.7213 132.871 35.7212C131.658 35.7212 130.778 35.4342 130.23 34.8602C129.683 34.2862 129.409 33.3929 129.408 32.1803V27.2828C129.407 27.2409 129.415 27.1992 129.431 27.1603C129.448 27.1214 129.472 27.0862 129.502 27.0567C129.531 27.0277 129.565 27.0046 129.603 26.9889C129.64 26.9732 129.681 26.9651 129.722 26.9652H129.747C129.789 26.9634 129.831 26.9701 129.869 26.9849C129.908 26.9996 129.944 27.0221 129.973 27.0509C130.003 27.0797 130.026 27.1142 130.041 27.1521C130.056 27.19 130.062 27.2305 130.06 27.2711V32.2283C130.039 32.7982 130.133 33.3666 130.336 33.9013C130.502 34.3055 130.815 34.6362 131.215 34.8301C131.735 35.0555 132.302 35.16 132.871 35.1354C134.66 35.1354 135.555 34.1667 135.555 32.2291V27.2711C135.554 27.23 135.561 27.1891 135.578 27.1512C135.594 27.1133 135.619 27.0792 135.65 27.0514C135.708 26.996 135.787 26.9651 135.869 26.9656H135.894C135.936 26.9642 135.978 26.9711 136.016 26.9859C136.055 27.0006 136.091 27.0229 136.12 27.0514" fill="var(--fill-0, white)"/>
<path id="Vector_22" d="M136.121 27.051C136.15 27.08 136.172 27.1144 136.187 27.1522C136.202 27.1899 136.209 27.2303 136.208 27.2707V32.1801C136.208 33.3192 135.926 34.1942 135.362 34.8051C134.797 35.416 133.967 35.7213 132.871 35.7212C131.658 35.7212 130.778 35.4342 130.23 34.8602C129.683 34.2862 129.409 33.3929 129.408 32.1803V27.2828C129.407 27.2409 129.415 27.1992 129.431 27.1603C129.448 27.1214 129.472 27.0862 129.502 27.0567C129.531 27.0277 129.565 27.0046 129.603 26.9889C129.64 26.9732 129.681 26.9651 129.722 26.9652H129.747C129.789 26.9634 129.831 26.9701 129.869 26.9849C129.908 26.9996 129.944 27.0221 129.973 27.0509C130.003 27.0797 130.026 27.1142 130.041 27.1521C130.056 27.19 130.062 27.2305 130.06 27.2711V32.2283C130.039 32.7982 130.133 33.3666 130.336 33.9013C130.502 34.3055 130.815 34.6362 131.215 34.8301C131.735 35.0555 132.302 35.16 132.871 35.1354C134.66 35.1354 135.555 34.1667 135.555 32.2291V27.2711C135.554 27.23 135.561 27.1891 135.578 27.1512C135.594 27.1133 135.619 27.0792 135.65 27.0514C135.708 26.996 135.787 26.9651 135.869 26.9656H135.894C135.936 26.9642 135.978 26.9711 136.016 26.9859C136.055 27.0006 136.091 27.0229 136.12 27.0514" fill="var(--fill-0, white)"/>
<path id="Vector_23" d="M138.309 35.4706C138.28 35.4431 138.256 35.4099 138.24 35.3731C138.224 35.3362 138.215 35.2966 138.215 35.2566V27.1118C138.213 27.0969 138.215 27.0817 138.22 27.0674C138.224 27.0531 138.233 27.0401 138.244 27.0294C138.254 27.0187 138.268 27.0107 138.282 27.0059C138.297 27.0011 138.313 26.9997 138.328 27.0018H141.113C141.668 26.9897 142.218 27.1048 142.719 27.3378C143.159 27.5355 143.53 27.8541 143.786 28.2544C144.043 28.6546 144.173 29.1191 144.162 29.5906C144.162 30.5677 143.896 31.3045 143.365 31.8013C142.834 32.298 142.083 32.5465 141.113 32.5468H138.868V35.2566C138.869 35.3364 138.837 35.4133 138.78 35.4706C138.751 35.5007 138.716 35.5244 138.677 35.5401C138.639 35.5559 138.597 35.5634 138.554 35.5621H138.53C138.488 35.5622 138.448 35.5542 138.41 35.5385C138.372 35.5227 138.338 35.4997 138.309 35.4706ZM141.113 31.96C141.899 31.96 142.497 31.7706 142.907 31.3918C143.317 31.013 143.522 30.4125 143.522 29.5904C143.537 29.3157 143.489 29.0412 143.382 28.7868C143.275 28.5323 143.11 28.3043 142.901 28.1192C142.487 27.7649 141.892 27.5878 141.114 27.5879H138.868V31.96H141.113Z" fill="var(--fill-0, white)"/>
<path id="Vector_24" d="M138.309 35.4706C138.28 35.4431 138.256 35.4099 138.24 35.3731C138.224 35.3362 138.215 35.2966 138.215 35.2566V27.1118C138.213 27.0969 138.215 27.0817 138.22 27.0674C138.224 27.0531 138.233 27.0401 138.244 27.0294C138.254 27.0187 138.268 27.0107 138.282 27.0059C138.297 27.0011 138.313 26.9997 138.328 27.0018H141.113C141.668 26.9897 142.218 27.1048 142.719 27.3378C143.159 27.5355 143.53 27.8541 143.786 28.2544C144.043 28.6546 144.173 29.1191 144.162 29.5906C144.162 30.5677 143.896 31.3045 143.365 31.8013C142.834 32.298 142.083 32.5465 141.113 32.5468H138.868V35.2566C138.869 35.3364 138.837 35.4133 138.78 35.4706C138.751 35.5007 138.716 35.5244 138.677 35.5401C138.639 35.5559 138.597 35.5634 138.554 35.5621H138.53C138.488 35.5622 138.448 35.5542 138.41 35.5385C138.372 35.5227 138.338 35.4997 138.309 35.4706ZM141.113 31.96C141.899 31.96 142.497 31.7706 142.907 31.3918C143.317 31.013 143.522 30.4125 143.522 29.5904C143.537 29.3157 143.489 29.0412 143.382 28.7868C143.275 28.5323 143.11 28.3043 142.901 28.1192C142.487 27.7649 141.892 27.5878 141.114 27.5879H138.868V31.96H141.113Z" fill="var(--fill-0, white)"/>
<path id="Vector_25" d="M36.8892 25.0403C36.8831 22.7693 37.3507 20.5208 38.2637 18.4309C39.1191 16.3934 40.3805 14.5409 41.9751 12.9804C43.5697 11.4198 45.466 10.182 47.5545 9.33834C49.7208 8.43512 52.0544 7.97411 54.411 7.98384C57.825 7.95529 61.1681 8.93312 64.0005 10.7888C66.8712 12.6465 69.122 15.2799 70.4763 18.3657C71.4038 20.4734 71.8664 22.7472 71.834 25.0399C71.8546 28.0178 71.0539 30.9466 69.5153 33.5206C68.0021 36.0898 65.8198 38.2251 63.1884 39.7114C60.5293 41.2343 57.4952 42.0256 54.4102 42.0006C51.3266 42.0252 48.2917 41.2517 45.6162 39.7593C42.9497 38.2814 40.7356 36.139 39.2017 33.5521C37.6677 30.9653 36.8701 28.0271 36.8892 25.0403ZM46.8587 25.0855C46.8488 26.0353 47.0409 26.9768 47.4229 27.8508C47.8049 28.7249 48.3685 29.5125 49.0783 30.1643C49.7727 30.8524 50.6034 31.3961 51.52 31.7624C52.4367 32.1287 53.4202 32.3101 54.411 32.2954C55.3906 32.3101 56.3629 32.1301 57.2686 31.7665C58.1743 31.4028 58.9942 30.8631 59.6783 30.1804C60.3822 29.5226 60.9395 28.7309 61.3155 27.8545C61.6916 26.978 61.8784 26.0356 61.8643 25.0859C61.8788 24.1265 61.6924 23.1743 61.3166 22.2873C60.9408 21.4003 60.3834 20.5971 59.6783 19.9266C58.999 19.2356 58.1807 18.6883 57.2744 18.3188C56.3682 17.9494 55.3934 17.7657 54.411 17.7793C53.4188 17.7654 52.4342 17.9487 51.5173 18.3179C50.6004 18.6871 49.7705 19.2345 49.0783 19.9266C48.3646 20.5922 47.7992 21.3937 47.4174 22.2811C47.0355 23.1686 46.8454 24.1234 46.8587 25.0855Z" fill="var(--fill-0, white)"/>
<path id="Vector_26" d="M36.8892 25.0403C36.8831 22.7693 37.3507 20.5208 38.2637 18.4309C39.1191 16.3934 40.3805 14.5409 41.9751 12.9804C43.5697 11.4198 45.466 10.182 47.5545 9.33834C49.7208 8.43512 52.0544 7.97411 54.411 7.98384C57.825 7.95529 61.1681 8.93312 64.0005 10.7888C66.8712 12.6465 69.122 15.2799 70.4763 18.3657C71.4038 20.4734 71.8664 22.7472 71.834 25.0399C71.8546 28.0178 71.0539 30.9466 69.5153 33.5206C68.0021 36.0898 65.8198 38.2251 63.1884 39.7114C60.5293 41.2343 57.4952 42.0256 54.4102 42.0006C51.3266 42.0252 48.2917 41.2517 45.6162 39.7593C42.9497 38.2814 40.7356 36.139 39.2017 33.5521C37.6677 30.9653 36.8701 28.0271 36.8892 25.0403ZM46.8587 25.0855C46.8488 26.0353 47.0409 26.9768 47.4229 27.8508C47.8049 28.7249 48.3685 29.5125 49.0783 30.1643C49.7727 30.8524 50.6034 31.3961 51.52 31.7624C52.4367 32.1287 53.4202 32.3101 54.411 32.2954C55.3906 32.3101 56.3629 32.1301 57.2686 31.7665C58.1743 31.4028 58.9942 30.8631 59.6783 30.1804C60.3822 29.5226 60.9395 28.7309 61.3155 27.8545C61.6916 26.978 61.8784 26.0356 61.8643 25.0859C61.8788 24.1265 61.6924 23.1743 61.3166 22.2873C60.9408 21.4003 60.3834 20.5971 59.6783 19.9266C58.999 19.2356 58.1807 18.6883 57.2744 18.3188C56.3682 17.9494 55.3934 17.7657 54.411 17.7793C53.4188 17.7654 52.4342 17.9487 51.5173 18.3179C50.6004 18.6871 49.7705 19.2345 49.0783 19.9266C48.3646 20.5922 47.7992 21.3937 47.4174 22.2811C47.0355 23.1686 46.8454 24.1234 46.8587 25.0855Z" fill="var(--fill-0, white)"/>
<path id="Vector_27" d="M24.9453 0V9.74481C24.92 9.74317 24.8952 9.73663 24.8725 9.72557C24.8498 9.71451 24.8297 9.69915 24.8131 9.6804C24.3983 9.50715 23.9953 9.35584 23.6044 9.22647C23.2251 9.10047 22.856 8.99547 22.4971 8.91147C21.9484 8.74206 21.4433 8.60758 20.972 8.49955C20.4752 8.40424 19.9725 8.32731 19.461 8.274C18.5441 8.22372 17.8034 8.19323 17.2346 8.18011C15.5702 8.19747 13.9171 8.44772 12.3259 8.92318C12.2892 8.93409 12.2535 8.9462 12.2176 8.95731C12.0392 9.01203 11.8631 9.07261 11.6868 9.13298C7.84569 10.4818 4.59192 13.0652 2.46257 16.4567C2.05306 17.135 1.68894 17.8383 1.37247 18.5622C0.461193 20.6395 -0.0057739 22.8758 5.38826e-05 25.1346C5.38826e-05 25.2057 0.00254315 25.2759 0.00295803 25.3474C0.0503957 25.6375 0.0712217 25.9312 0.0651898 26.225C0.330297 30.2436 1.9459 33.7756 4.91201 36.8209C5.6261 37.558 6.40334 38.2346 7.23533 38.8433C7.71057 39.1711 8.20075 39.4842 8.7181 39.7722C10.427 40.7237 12.2909 41.3825 14.2288 41.7199C14.6517 41.7848 15.0809 41.8381 15.5174 41.872C15.6492 41.8938 15.8585 41.9153 16.1455 41.9364C16.3363 41.9503 16.495 41.9649 16.6276 41.9794C16.918 41.9919 17.2084 42.0008 17.5022 42.0008C17.8755 42.0008 18.2464 41.9891 18.6134 41.9677C21.313 41.8254 23.9384 41.056 26.27 39.7237C28.8954 38.2478 31.0749 36.1244 32.5888 33.5675C33.2418 32.4773 33.765 31.3182 34.1483 30.1126C34.6561 28.4997 34.911 26.8215 34.9046 25.1346V0H24.9453ZM21.8683 30.0744C21.1843 30.757 20.3644 31.2967 19.4588 31.6603C18.5532 32.024 17.581 32.204 16.6015 32.1894C15.6107 32.2039 14.6272 32.0225 13.7105 31.6562C12.7939 31.29 11.9631 30.7464 11.2686 30.0585C10.5589 29.4066 9.99528 28.619 9.6133 27.745C9.23132 26.8709 9.03919 25.9295 9.04897 24.9797C9.03562 24.0176 9.22579 23.0631 9.60764 22.1756C9.98949 21.288 10.5549 20.4865 11.2686 19.8208C11.9608 19.1287 12.7907 18.5814 13.7077 18.2122C14.6246 17.8431 15.6093 17.6599 16.6015 17.6739C17.5838 17.6603 18.5584 17.844 19.4646 18.2133C20.3708 18.5827 21.1891 19.1299 21.8683 19.8208C22.5733 20.4912 23.1307 21.2944 23.5065 22.1813C23.8823 23.0683 24.0686 24.0204 24.0541 24.9797C24.0683 25.9294 23.8816 26.8718 23.5056 27.7483C23.1295 28.6247 22.5722 29.4166 21.8683 30.0744Z" fill="var(--fill-0, white)"/>
<path id="Vector_28" d="M24.9453 0V9.74481C24.92 9.74317 24.8952 9.73663 24.8725 9.72557C24.8498 9.71451 24.8297 9.69915 24.8131 9.6804C24.3983 9.50715 23.9953 9.35584 23.6044 9.22647C23.2251 9.10047 22.856 8.99547 22.4971 8.91147C21.9484 8.74206 21.4433 8.60758 20.972 8.49955C20.4752 8.40424 19.9725 8.32731 19.461 8.274C18.5441 8.22372 17.8034 8.19323 17.2346 8.18011C15.5702 8.19747 13.9171 8.44772 12.3259 8.92318C12.2892 8.93409 12.2535 8.9462 12.2176 8.95731C12.0392 9.01203 11.8631 9.07261 11.6868 9.13298C7.84569 10.4818 4.59192 13.0652 2.46257 16.4567C2.05306 17.135 1.68894 17.8383 1.37247 18.5622C0.461193 20.6395 -0.0057739 22.8758 5.38826e-05 25.1346C5.38826e-05 25.2057 0.00254315 25.2759 0.00295803 25.3474C0.0503957 25.6375 0.0712217 25.9312 0.0651898 26.225C0.330297 30.2436 1.9459 33.7756 4.91201 36.8209C5.6261 37.558 6.40334 38.2346 7.23533 38.8433C7.71057 39.1711 8.20075 39.4842 8.7181 39.7722C10.427 40.7237 12.2909 41.3825 14.2288 41.7199C14.6517 41.7848 15.0809 41.8381 15.5174 41.872C15.6492 41.8938 15.8585 41.9153 16.1455 41.9364C16.3363 41.9503 16.495 41.9649 16.6276 41.9794C16.918 41.9919 17.2084 42.0008 17.5022 42.0008C17.8755 42.0008 18.2464 41.9891 18.6134 41.9677C21.313 41.8254 23.9384 41.056 26.27 39.7237C28.8954 38.2478 31.0749 36.1244 32.5888 33.5675C33.2418 32.4773 33.765 31.3182 34.1483 30.1126C34.6561 28.4997 34.911 26.8215 34.9046 25.1346V0H24.9453ZM21.8683 30.0744C21.1843 30.757 20.3644 31.2967 19.4588 31.6603C18.5532 32.024 17.581 32.204 16.6015 32.1894C15.6107 32.2039 14.6272 32.0225 13.7105 31.6562C12.7939 31.29 11.9631 30.7464 11.2686 30.0585C10.5589 29.4066 9.99528 28.619 9.6133 27.745C9.23132 26.8709 9.03919 25.9295 9.04897 24.9797C9.03562 24.0176 9.22579 23.0631 9.60764 22.1756C9.98949 21.288 10.5549 20.4865 11.2686 19.8208C11.9608 19.1287 12.7907 18.5814 13.7077 18.2122C14.6246 17.8431 15.6093 17.6599 16.6015 17.6739C17.5838 17.6603 18.5584 17.844 19.4646 18.2133C20.3708 18.5827 21.1891 19.1299 21.8683 19.8208C22.5733 20.4912 23.1307 21.2944 23.5065 22.1813C23.8823 23.0683 24.0686 24.0204 24.0541 24.9797C24.0683 25.9294 23.8816 26.8718 23.5056 27.7483C23.1295 28.6247 22.5722 29.4166 21.8683 30.0744Z" fill="var(--fill-0, white)"/>
<path id="Vector_29" d="M84.6214 37.0902C84.6154 37.6648 84.7316 38.2343 84.9626 38.763C85.1936 39.2918 85.5345 39.7683 85.9637 40.1627C86.3839 40.5789 86.8864 40.9078 87.441 41.1294C87.9956 41.3509 88.5906 41.4605 89.19 41.4516C89.7826 41.4605 90.3708 41.3516 90.9187 41.1316C91.4666 40.9116 91.9625 40.585 92.3763 40.172C92.8019 39.774 93.1389 39.295 93.3664 38.7649C93.5938 38.2347 93.7068 37.6647 93.6983 37.0902C93.707 36.51 93.5943 35.9341 93.367 35.3976C93.1397 34.8612 92.8026 34.3753 92.3763 33.9697C91.9654 33.5517 91.4704 33.2206 90.9222 32.9971C90.374 32.7736 89.7843 32.6625 89.19 32.6707C88.5898 32.6623 87.994 32.7731 87.4393 32.9964C86.8845 33.2198 86.3824 33.551 85.9637 33.9697C85.532 34.3724 85.1901 34.8572 84.9592 35.3941C84.7282 35.9309 84.6132 36.5083 84.6214 37.0902Z" fill="var(--fill-0, #76B900)"/>
<path id="Vector_30" d="M85.4406 40.678C84.9409 40.2166 84.5442 39.66 84.2751 39.0429C84.0059 38.4258 83.8702 37.7614 83.8763 37.091C83.868 36.4135 84.0023 35.7415 84.271 35.1164C84.5396 34.4913 84.937 33.9263 85.4385 33.4564C85.9161 32.9816 86.4859 32.604 87.1148 32.3455C87.7436 32.0869 88.419 31.9527 89.1017 31.9505C88.0447 31.6849 87.0636 31.1886 86.233 30.4991C86.1215 30.4371 86.0192 30.3607 85.9287 30.2721C85.8841 30.2279 85.8422 30.1831 85.7982 30.139C85.7714 30.113 85.7457 30.0855 85.7198 30.0583C85.6764 30.0129 85.6337 29.9671 85.5918 29.921C85.5775 29.906 85.5654 29.8901 85.5516 29.8751C84.8962 29.2308 84.3786 28.4662 84.029 27.6257C83.6794 26.7853 83.5046 25.8856 83.5147 24.9789C83.5266 23.272 84.1477 21.6222 85.2716 20.312C86.3955 19.0017 87.9524 18.1125 89.6756 17.7965V8.24856C89.5221 8.25684 89.3635 8.26491 89.1985 8.2742C88.687 8.3269 88.1844 8.40384 87.6876 8.49975C87.2162 8.60677 86.7111 8.74206 86.162 8.91107C85.8037 8.99547 85.4349 9.10067 85.0556 9.22667C84.6634 9.3559 84.2602 9.50728 83.8462 9.6808C83.8296 9.69965 83.8093 9.71507 83.7865 9.72614C83.7637 9.7372 83.7389 9.74369 83.7134 9.74521V0H73.7564V25.1346C73.75 26.8216 74.005 28.4998 74.5129 30.1128C74.6431 30.5245 74.7915 30.9298 74.9554 31.3318C75.2749 32.1228 75.6548 32.8894 76.0919 33.6252C77.6052 36.1941 79.7875 38.3292 82.4188 39.8154C83.7174 40.5582 85.1122 41.1286 86.5661 41.5115C86.1559 41.2819 85.7774 41.0016 85.4406 40.678Z" fill="var(--fill-0, white)"/>
<path id="Vector_31" d="M85.4406 40.678C84.9409 40.2166 84.5442 39.66 84.2751 39.0429C84.0059 38.4258 83.8702 37.7614 83.8763 37.091C83.868 36.4135 84.0023 35.7415 84.271 35.1164C84.5396 34.4913 84.937 33.9263 85.4385 33.4564C85.9161 32.9816 86.4859 32.604 87.1148 32.3455C87.7436 32.0869 88.419 31.9527 89.1017 31.9505C88.0447 31.6849 87.0636 31.1886 86.233 30.4991C86.1215 30.4371 86.0192 30.3607 85.9287 30.2721C85.8841 30.2279 85.8422 30.1831 85.7982 30.139C85.7714 30.113 85.7457 30.0855 85.7198 30.0583C85.6764 30.0129 85.6337 29.9671 85.5918 29.921C85.5775 29.906 85.5654 29.8901 85.5516 29.8751C84.8962 29.2308 84.3786 28.4662 84.029 27.6257C83.6794 26.7853 83.5046 25.8856 83.5147 24.9789C83.5266 23.272 84.1477 21.6222 85.2716 20.312C86.3955 19.0017 87.9524 18.1125 89.6756 17.7965V8.24856C89.5221 8.25684 89.3635 8.26491 89.1985 8.2742C88.687 8.3269 88.1844 8.40384 87.6876 8.49975C87.2162 8.60677 86.7111 8.74206 86.162 8.91107C85.8037 8.99547 85.4349 9.10067 85.0556 9.22667C84.6634 9.3559 84.2602 9.50728 83.8462 9.6808C83.8296 9.69965 83.8093 9.71507 83.7865 9.72614C83.7637 9.7372 83.7389 9.74369 83.7134 9.74521V0H73.7564V25.1346C73.75 26.8216 74.005 28.4998 74.5129 30.1128C74.6431 30.5245 74.7915 30.9298 74.9554 31.3318C75.2749 32.1228 75.6548 32.8894 76.0919 33.6252C77.6052 36.1941 79.7875 38.3292 82.4188 39.8154C83.7174 40.5582 85.1122 41.1286 86.5661 41.5115C86.1559 41.2819 85.7774 41.0016 85.4406 40.678Z" fill="var(--fill-0, white)"/>
</g>
</svg>
