<svg xmlns="http://www.w3.org/2000/svg" viewBox="0 0 20 20" fill="white"><path d="M17.4 11c0-.3.1-.7.1-1s0-.7-.1-1l2.1-1.6a.5.5 0 0 0 .1-.6l-2-3.5a.5.5 0 0 0-.6-.2l-2.5 1a7.4 7.4 0 0 0-1.7-1L12.4.6a.5.5 0 0 0-.5-.4h-4a.5.5 0 0 0-.5.4L7.1 3a7.4 7.4 0 0 0-1.7 1l-2.5-1a.5.5 0 0 0-.6.2l-2 3.5a.5.5 0 0 0 .1.6L2.6 9c0 .3-.1.7-.1 1s0 .7.1 1L.5 12.6a.5.5 0 0 0-.1.6l2 3.5c.1.2.4.3.6.2l2.5-1c.5.4 1.1.7 1.7 1l.4 2.6c0 .2.2.4.5.4h4c.2 0 .4-.2.5-.4l.4-2.6c.6-.3 1.2-.6 1.7-1l2.5 1c.2.1.5 0 .6-.2l2-3.5a.5.5 0 0 0-.1-.6L17.4 11zM10 13.5c-1.9 0-3.5-1.6-3.5-3.5s1.6-3.5 3.5-3.5 3.5 1.6 3.5 3.5-1.6 3.5-3.5 3.5z"/></svg>
